<?xml version="1.0" standalone="no"?><!-- Generator: Gravit.io --><svg xmlns="http://www.w3.org/2000/svg" xmlns:xlink="http://www.w3.org/1999/xlink" style="isolation:isolate" viewBox="31.759154668105367 63.287533999999795 188.4249320000004 188.4249320000004" width="188.4249320000004" height="188.4249320000004"><path d=" M 31.759154668105367 157.5 C 31.759154668105367 105.50272494336056 73.9743456114661 63.28753399999981 125.97162066810556 63.287533999999795 C 177.96889572474498 63.287533999999795 220.18408666810575 105.50272494336053 220.18408666810578 157.49999999999997 C 220.1840866681058 209.4972750566394 177.96889572474504 251.71246600000018 125.9716206681056 251.7124660000002 C 73.97434561146616 251.71246600000023 31.75915466810538 209.49727505663947 31.759154668105367 157.5 Z " fill="rgb(64,58,70)"/><path d=" M 92.59952376733884 85.1937076704134 L 92.6607267670204 94.4225432401953 L 107.51343288794422 94.4225432401953 L 107.51343288794422 101.84888867126308 L 70.38182780291129 101.84888867126308 L 70.38182780291129 138.98053190326664 L 62.95542133669048 138.98053190326664 L 62.95542133669048 124.12786392931345 L 53.66539802601531 124.12786392931345 C 53.66539802601531 146.40684681675793 53.66539802601531 168.6858449629907 53.66539802601531 190.96483547982933 L 62.955970653067595 190.96483547982933 L 62.955970653067595 176.1121751352702 L 70.38237711928838 176.1121751352702 L 70.38237711928838 213.2438107378797 L 107.51399746310958 213.2438107378797 L 107.51399746310958 220.6701409101592 L 92.6612760833975 220.6701409101592 L 92.50676559355074 229.80627934130598 C 114.78578662796585 229.80627934130598 137.06479240359272 229.80627934130598 159.3437981792196 229.80627934130598 L 159.4983239278546 220.6701409101592 L 144.64572461844855 220.6701409101592 L 144.64572461844855 213.2438107378797 L 181.77731444469322 213.2438107378797 L 181.77731444469322 176.1121751352702 L 189.20361409939625 176.1121751352702 L 189.20361409939625 190.96483547982933 L 198.27795443811965 190.96483547982933 C 198.27795443811965 168.6858449629907 198.27795443811965 146.40684681675793 198.27795443811965 124.12786392931345 L 189.20361409939625 124.12786392931345 L 189.20361409939625 138.98053190326664 L 181.77731444469322 138.98053190326664 L 181.77731444469322 101.84888867126308 L 144.64572461844855 101.84888867126308 L 144.64572461844855 94.4225432401953 L 159.4983239278546 94.4225432401953 L 159.43661738816073 85.1937076704134 C 137.15761161253386 85.1937076704134 114.87859057811872 85.1937076704134 92.59958480249185 85.1937076704134 L 92.59952376733884 85.1937076704134 Z " fill-rule="evenodd" fill="rgb(255,255,255)"/><path d=" M 79.95789411012447 157.5 C 79.95789411012447 132.10433318647733 100.57595385458289 111.48627344201891 125.97162066810556 111.4862734420189 C 151.36728748162824 111.4862734420189 171.98534722608667 132.1043331864773 171.98534722608667 157.5 C 171.98534722608667 182.89566681352267 151.36728748162824 203.5137265579811 125.97162066810559 203.5137265579811 C 100.5759538545829 203.5137265579811 79.95789411012449 182.89566681352267 79.95789411012447 157.5 Z " fill="none"/><g style="isolation: isolate;"><path d=" M 79.95789411012447 157.5 C 79.95789411012447 132.10433318647733 100.57595385458289 111.48627344201891 125.97162066810556 111.4862734420189 C 151.36728748162824 111.4862734420189 171.98534722608667 132.1043331864773 171.98534722608667 157.5 C 171.98534722608667 182.89566681352267 151.36728748162824 203.5137265579811 125.97162066810559 203.5137265579811 C 100.5759538545829 203.5137265579811 79.95789411012449 182.89566681352267 79.95789411012447 157.5 Z " fill="none" vector-effect="non-scaling-stroke" stroke-width="4.499999761178124" stroke="rgb(98,88,106)" stroke-linejoin="miter" stroke-linecap="round" stroke-miterlimit="4"/></g><path d=" M 124.03119867108674 157.5 C 124.03119867108674 156.42905195470692 124.90067262281248 155.55957800298117 125.97162066810557 155.55957800298117 C 127.04256871339867 155.55957800298117 127.9120426651244 156.42905195470692 127.9120426651244 157.5 C 127.9120426651244 158.57094804529308 127.04256871339867 159.44042199701883 125.97162066810557 159.44042199701883 C 124.90067262281248 159.44042199701883 124.03119867108674 158.57094804529308 124.03119867108674 157.5 Z " fill="rgb(64,58,70)"/></svg>